<svg xmlns="http://www.w3.org/2000/svg" width="11" height="11" viewBox="0 0 11 11" xmlns:xlink="http://www.w3.org/1999/xlink">
  <defs>
    <path id="a" d="M9.38234944,5.34489052 C9.62358089,5.11496236 9.91841491,5 10.2668603,5 C10.6153058,5 10.9101398,5.11496236 11.1513712,5.34489052 C11.3926027,5.57481869 11.5132166,5.86861138 11.5132166,6.22627741 C11.5132166,6.58394344 11.3926027,6.87773613 11.1513712,7.1076643 L9.18132424,9.02372275 L14.2536441,9.02372275 C14.6020895,9.02372275 14.8969235,9.1450719 15.138155,9.38777386 C15.3793864,9.63047581 15.5000003,9.9178817 15.5000003,10.2500002 C15.5000003,10.5821186 15.3793864,10.8695245 15.138155,11.1122265 C14.8969235,11.3549284 14.6020895,11.4762776 14.2536441,11.4762776 L9.18132424,11.4762776 L11.1111662,13.392336 C11.3523976,13.6222642 11.4730116,13.9160569 11.4730116,14.2737229 C11.4730116,14.6313889 11.3523976,14.9251816 11.1111662,15.1551098 C10.8699347,15.385038 10.5818015,15.5000003 10.2467578,15.5000003 C9.91171414,15.5000003 9.62358089,15.385038 9.38234944,15.1551098 L5.36184537,11.0930659 C5.12061392,10.8631377 5,10.5821186 5,10.2500002 C5,9.89233413 5.12061392,9.59854143 5.36184537,9.36861327 L9.38234944,5.34489052 Z"/>
  </defs>
  <g fill="none" fill-rule="evenodd" transform="matrix(0 -1 -1 0 16 16)">
    <mask id="b" fill="white">
      <use xlink:href="#a"/>
    </mask>
    <use fill="#00BD52" xlink:href="#a"/>
    <rect width="20" height="20" fill="#E66969" mask="url(#b)"/>
  </g>
</svg>
